<?xml version="1.0" standalone="no"?>
<!DOCTYPE svg PUBLIC "-//W3C//DTD SVG 20010904//EN"
 "http://www.w3.org/TR/2001/REC-SVG-20010904/DTD/svg10.dtd">
<svg version="1.0" xmlns="http://www.w3.org/2000/svg"
 width="948.000000pt" height="948.000000pt" viewBox="0 0 948.000000 948.000000"
 preserveAspectRatio="xMidYMid meet">
<metadata>
Created by potrace 1.11, written by Peter Selinger 2001-2013
</metadata>
<g transform="translate(0.000000,948.000000) scale(0.100000,-0.100000)"
fill="#000000" stroke="none">
<path d="M1385 9466 c-99 -31 -180 -97 -230 -185 -31 -53 -49 -147 -42 -214 4
-43 100 -316 207 -592 41 -104 413 -1102 426 -1140 7 -22 34 -94 59 -160 26
-66 48 -124 49 -130 1 -5 10 -27 19 -49 9 -21 17 -41 17 -43 0 -3 49 -136 109
-297 219 -586 271 -725 271 -729 0 -3 8 -22 17 -43 9 -22 18 -43 19 -49 2 -5
33 -89 69 -185 36 -96 70 -186 75 -200 4 -14 75 -205 158 -425 83 -220 207
-553 277 -740 69 -187 168 -452 220 -590 95 -254 289 -775 621 -1665 203 -545
211 -566 247 -660 14 -36 87 -231 162 -435 76 -203 143 -383 149 -400 7 -16
27 -70 45 -120 93 -256 138 -321 261 -379 57 -27 75 -31 155 -31 81 0 97 3
155 32 70 33 110 67 152 124 21 28 201 493 352 909 7 19 44 116 81 215 37 99
73 196 80 215 8 19 82 217 165 440 84 223 163 434 175 470 41 115 75 204 84
225 6 11 92 241 192 510 100 270 193 519 206 555 14 36 36 97 49 135 14 39 29
79 34 90 5 11 37 94 70 185 34 91 70 188 80 215 11 28 88 232 171 455 83 223
200 538 261 700 61 162 125 338 144 390 19 52 38 104 44 115 5 11 42 110 83
220 101 273 227 610 552 1480 152 407 315 844 362 970 46 127 91 244 99 261
27 60 42 139 40 209 -3 134 -87 258 -216 319 -58 27 -75 31 -156 31 -86 0 -94
-2 -175 -42 -52 -26 -107 -64 -145 -100 -87 -83 -242 -224 -289 -264 -22 -19
-42 -36 -45 -39 -17 -19 -234 -191 -330 -262 -117 -87 -385 -268 -396 -268 -3
0 -18 -8 -32 -19 -68 -47 -411 -222 -542 -275 -25 -10 -59 -25 -76 -32 -105
-46 -452 -150 -563 -169 -19 -3 -37 -7 -40 -9 -3 -2 -24 -7 -46 -10 -22 -4
-67 -11 -100 -16 -33 -5 -78 -12 -100 -14 -22 -3 -67 -8 -100 -12 -128 -16
-608 -9 -715 11 -14 3 -43 7 -65 10 -22 3 -51 7 -65 10 -14 3 -40 8 -59 11
-51 9 -59 10 -156 34 -49 12 -99 23 -109 25 -11 3 -65 18 -120 36 -519 159
-1030 439 -1486 812 -154 126 -386 347 -439 417 -60 80 -127 129 -211 154 -63
19 -159 20 -215 2z m5764 -1568 c-12 -29 -156 -413 -321 -853 -164 -440 -322
-861 -350 -935 -28 -74 -71 -189 -95 -255 -25 -66 -55 -147 -68 -180 -12 -33
-71 -190 -130 -350 -59 -159 -111 -299 -116 -310 -7 -16 -199 -532 -471 -1265
-71 -192 -89 -241 -103 -275 -7 -16 -21 -52 -30 -80 -9 -27 -27 -77 -40 -110
-13 -33 -42 -112 -66 -175 -128 -348 -190 -515 -194 -519 -3 -2 -5 1035 -5
2305 l0 2310 33 2 c28 2 91 11 192 28 479 78 1055 289 1510 554 50 29 104 60
120 70 17 9 55 33 85 53 30 20 58 36 62 36 4 1 -2 -23 -13 -51z m-4748 -29
c80 -55 375 -212 553 -294 344 -157 769 -287 1116 -341 19 -3 46 -7 60 -10 37
-6 122 -17 150 -19 l25 -1 2 -2290 2 -2289 -95 255 c-53 140 -125 334 -160
430 -36 96 -69 184 -74 195 -5 11 -61 162 -125 335 -63 173 -122 331 -130 350
-8 19 -30 78 -49 130 -53 147 -343 926 -375 1010 -38 98 -126 334 -144 385
-22 62 -207 558 -217 580 -4 11 -24 63 -43 115 -99 267 -129 347 -137 365 -5
11 -100 265 -212 564 -112 300 -205 549 -206 553 -5 11 28 -2 59 -23z"/>
</g>
</svg>
